<svg xmlns="http://www.w3.org/2000/svg" xmlns:xlink="http://www.w3.org/1999/xlink" width="500" zoomAndPan="magnify" viewBox="0 0 375 374.999991" height="500" preserveAspectRatio="xMidYMid meet" version="1.0"><defs><g/><clipPath id="94b51ff2a2"><path d="M 76 80 L 293 80 L 293 297.53125 L 76 297.53125 Z M 76 80 " clip-rule="nonzero"/></clipPath><clipPath id="5d3e7e4361"><path d="M 37.5 138 L 337.5 138 L 337.5 215 L 37.5 215 Z M 37.5 138 " clip-rule="nonzero"/></clipPath></defs><g clip-path="url(#94b51ff2a2)"><path fill="#ffffff" d="M 80.441406 168.183594 C 80.351562 170.28125 80.292969 172.390625 80.324219 174.5 C 79.871094 175.359375 79.449219 176.234375 79.074219 177.109375 C 79.40625 174.09375 79.871094 171.109375 80.441406 168.183594 Z M 123.421875 102.089844 C 121.511719 104.230469 119.78125 106.613281 118.203125 109.207031 C 114.605469 111.015625 111.296875 112.976562 108.289062 115.085938 C 112.90625 110.308594 117.976562 105.933594 123.421875 102.089844 Z M 260.960938 115.070312 C 257.953125 112.960938 254.628906 110.984375 251.035156 109.191406 C 249.453125 106.570312 247.695312 104.171875 245.769531 102.015625 C 250.703125 105.5 255.382812 109.417969 259.730469 113.773438 C 260.148438 114.183594 260.554688 114.632812 260.960938 115.070312 Z M 288.929688 174.488281 C 288.972656 172.347656 288.914062 170.234375 288.808594 168.125 C 289.378906 171.050781 289.816406 173.988281 290.148438 176.972656 C 289.785156 176.144531 289.378906 175.300781 288.929688 174.488281 Z M 288.507812 211.304688 C 288.28125 207.277344 287.152344 203.359375 285.167969 199.542969 C 287.152344 192.53125 288.371094 185.402344 288.777344 178.269531 C 289.847656 180.832031 290.492188 183.441406 290.777344 186.082031 C 290.792969 187.058594 290.839844 188.054688 290.839844 189.050781 C 290.839844 196.617188 290.042969 204.066406 288.507812 211.304688 Z M 257.335938 266.601562 C 257.59375 266.226562 257.820312 265.832031 258.042969 265.441406 C 258.886719 264.808594 259.699219 264.144531 260.527344 263.480469 C 260.253906 263.753906 260 264.054688 259.730469 264.324219 C 258.945312 265.109375 258.132812 265.847656 257.335938 266.601562 Z M 108.664062 263.421875 C 109.492188 264.101562 110.320312 264.777344 111.160156 265.410156 C 111.386719 265.804688 111.628906 266.195312 111.882812 266.585938 C 111.085938 265.832031 110.289062 265.09375 109.507812 264.324219 C 109.21875 264.023438 108.949219 263.722656 108.664062 263.421875 Z M 90.988281 163.964844 C 91.078125 170.898438 91.949219 178.015625 93.664062 185.28125 C 93.800781 185.824219 93.9375 186.367188 94.070312 186.910156 C 93.109375 187.753906 92.191406 188.613281 91.320312 189.488281 C 88.671875 192.140625 86.488281 194.886719 84.804688 197.675781 C 82.894531 190.511719 81.8125 183.246094 81.570312 175.964844 C 83.722656 171.742188 86.894531 167.71875 90.988281 163.964844 Z M 85.121094 151.78125 C 87.183594 147.800781 90.175781 144.03125 93.980469 140.535156 C 92.070312 147.289062 91.0625 154.359375 90.972656 161.640625 C 89.933594 162.546875 88.941406 163.464844 88.007812 164.386719 C 85.390625 167.023438 83.242188 169.707031 81.511719 172.464844 C 81.527344 168.304688 81.828125 164.160156 82.398438 160.042969 C 83.195312 157.238281 84.113281 154.480469 85.121094 151.78125 Z M 101.324219 123.078125 C 100.601562 124.328125 99.910156 125.609375 99.261719 126.90625 C 98.449219 127.613281 97.667969 128.308594 96.929688 129.046875 C 98.328125 126.996094 99.789062 124.992188 101.324219 123.078125 Z M 114.230469 117.089844 C 109.460938 119.519531 105.21875 122.171875 101.5625 125.023438 C 102.722656 122.894531 104 120.816406 105.371094 118.78125 C 108.769531 115.992188 112.710938 113.414062 117.089844 111.105469 C 116.050781 113.007812 115.085938 114.996094 114.230469 117.089844 Z M 136.992188 103.144531 C 136.089844 105.03125 135.277344 107.050781 134.554688 109.175781 C 131.515625 110.066406 128.566406 111.046875 125.707031 112.101562 C 122.21875 113.414062 118.953125 114.800781 115.882812 116.292969 C 116.832031 114.105469 117.886719 112.042969 119.042969 110.097656 C 124.445312 107.414062 130.476562 105.074219 136.992188 103.144531 Z M 128.730469 98.546875 C 130.28125 97.582031 131.847656 96.664062 133.441406 95.789062 C 137.003906 94.144531 140.871094 92.683594 144.964844 91.433594 C 142.136719 94.328125 139.714844 97.75 137.683594 101.714844 C 131.394531 103.539062 125.511719 105.722656 120.203125 108.226562 C 122.652344 104.488281 125.511719 101.246094 128.730469 98.546875 Z M 146.8125 89.652344 C 146.542969 89.714844 146.273438 89.789062 146 89.878906 C 146.332031 89.742188 146.664062 89.621094 146.996094 89.503906 C 146.933594 89.546875 146.875 89.59375 146.8125 89.652344 Z M 165 85.914062 C 159.554688 86.621094 154.304688 87.648438 149.324219 88.960938 C 149.355469 88.855469 149.371094 88.734375 149.355469 88.628906 C 154.863281 86.683594 160.5625 85.175781 166.445312 84.164062 C 165.933594 84.691406 165.453125 85.28125 165 85.914062 Z M 219.925781 88.929688 C 214.945312 87.617188 209.695312 86.59375 204.234375 85.882812 C 203.796875 85.265625 203.332031 84.691406 202.835938 84.164062 C 208.65625 85.175781 214.375 86.636719 219.910156 88.582031 C 219.878906 88.703125 219.878906 88.808594 219.925781 88.929688 Z M 222.375 89.59375 C 222.332031 89.546875 222.269531 89.503906 222.210938 89.441406 C 222.542969 89.578125 222.886719 89.699219 223.21875 89.832031 C 222.949219 89.757812 222.664062 89.667969 222.375 89.59375 Z M 253.367188 116.261719 C 250.296875 114.785156 247.03125 113.382812 243.558594 112.085938 C 240.683594 111.03125 237.734375 110.050781 234.710938 109.160156 C 233.988281 107.035156 233.164062 105.03125 232.261719 103.117188 C 238.773438 105.0625 244.804688 107.382812 250.191406 110.082031 C 251.363281 112.027344 252.417969 114.089844 253.367188 116.261719 Z M 263.851562 118.734375 C 265.234375 120.769531 266.511719 122.851562 267.671875 124.976562 C 264.015625 122.140625 259.789062 119.488281 255.019531 117.078125 C 254.164062 114.980469 253.199219 112.976562 252.148438 111.078125 C 256.523438 113.398438 260.449219 115.945312 263.851562 118.734375 Z M 269.957031 126.859375 C 269.3125 125.535156 268.605469 124.238281 267.867188 122.941406 C 269.445312 124.945312 270.964844 126.980469 272.394531 129.0625 C 271.613281 128.324219 270.800781 127.570312 269.957031 126.859375 Z M 281.269531 164.386719 C 280.324219 163.449219 279.332031 162.546875 278.292969 161.625 C 278.1875 154.269531 277.164062 147.136719 275.222656 140.324219 C 279.03125 143.851562 282.023438 147.652344 284.113281 151.675781 C 285.152344 154.449219 286.070312 157.269531 286.867188 160.132812 C 287.4375 164.21875 287.726562 168.320312 287.738281 172.453125 C 286.023438 169.691406 283.875 167.007812 281.269531 164.386719 Z M 277.601562 189.488281 C 276.816406 188.6875 275.976562 187.917969 275.117188 187.164062 C 275.285156 186.53125 275.449219 185.898438 275.585938 185.28125 C 277.316406 178.015625 278.1875 170.898438 278.261719 163.980469 C 278.863281 164.519531 279.449219 165.078125 280.007812 165.652344 C 283.332031 168.96875 285.890625 172.421875 287.695312 175.949219 C 287.453125 183.351562 286.324219 190.769531 284.339844 198.066406 C 282.625 195.125 280.367188 192.261719 277.601562 189.488281 Z M 279.960938 210.820312 C 278.335938 208.078125 276.214844 205.421875 273.644531 202.828125 C 272.773438 201.96875 271.867188 201.140625 270.921875 200.296875 C 272.425781 196.363281 273.734375 192.414062 274.800781 188.449219 C 275.464844 189.066406 276.125 189.683594 276.773438 190.316406 C 279.796875 193.347656 282.171875 196.484375 283.902344 199.679688 C 282.820312 203.433594 281.496094 207.15625 279.960938 210.820312 Z M 287.289062 214.953125 C 286.28125 217.664062 285.183594 220.257812 283.992188 222.761719 C 283.648438 219.128906 282.550781 215.570312 280.683594 212.101562 C 282.234375 208.515625 283.574219 204.894531 284.6875 201.21875 C 286.476562 205 287.378906 208.890625 287.378906 212.855469 C 287.378906 213.550781 287.347656 214.257812 287.289062 214.953125 Z M 284.097656 225.21875 C 284.640625 224.164062 285.152344 223.078125 285.664062 221.976562 C 285.152344 223.53125 284.625 225.050781 284.054688 226.589844 C 284.085938 226.121094 284.097656 225.6875 284.097656 225.21875 Z M 237.824219 275.210938 C 238.546875 273.492188 238.925781 271.742188 238.984375 269.933594 C 245.890625 266.332031 253.066406 261.703125 259.878906 255.867188 C 259.683594 258.839844 258.75 261.777344 257.15625 264.628906 C 251.167969 269.042969 244.550781 272.542969 237.824219 275.210938 Z M 227.519531 286.457031 C 227.429688 286.488281 227.339844 286.53125 227.25 286.546875 C 228.800781 285.554688 230.230469 284.527344 231.507812 283.425781 C 233.6875 282.777344 235.855469 281.996094 237.960938 281.136719 C 234.578125 283.09375 231.101562 284.875 227.519531 286.457031 Z M 137.621094 283.382812 C 138.855469 284.46875 140.238281 285.492188 141.746094 286.457031 C 141.714844 286.457031 141.683594 286.441406 141.652344 286.425781 C 138.105469 284.859375 134.613281 283.082031 131.242188 281.105469 C 133.320312 281.964844 135.457031 282.734375 137.621094 283.382812 Z M 109.371094 255.867188 C 116.1875 261.6875 123.359375 266.316406 130.265625 269.917969 C 130.3125 271.714844 130.6875 273.476562 131.394531 275.195312 C 124.683594 272.511719 118.066406 269.03125 112.078125 264.613281 C 110.484375 261.761719 109.550781 258.824219 109.371094 255.867188 Z M 85.136719 225.171875 C 85.136719 225.640625 85.167969 226.09375 85.179688 226.574219 C 84.59375 225.007812 84.054688 223.4375 83.542969 221.855469 C 84.054688 222.988281 84.578125 224.101562 85.136719 225.171875 Z M 98.328125 200.28125 C 97.382812 201.125 96.464844 201.957031 95.605469 202.828125 C 93.019531 205.40625 90.929688 208.078125 89.304688 210.789062 C 87.707031 207.007812 86.355469 203.160156 85.242188 199.273438 C 87.421875 195.367188 90.523438 191.660156 94.402344 188.191406 C 95.472656 192.230469 96.792969 196.273438 98.328125 200.28125 Z M 111.144531 177.09375 C 111.988281 181.332031 113.011719 185.597656 114.214844 189.847656 C 108.542969 192.699219 103.519531 195.925781 99.292969 199.46875 C 97.757812 195.425781 96.449219 191.371094 95.394531 187.332031 C 99.773438 183.578125 105.070312 180.15625 111.144531 177.09375 Z M 110.515625 129.289062 C 109.28125 134.988281 108.542969 141.136719 108.410156 147.726562 C 108.378906 148.554688 108.394531 149.386719 108.394531 150.214844 C 102.242188 153.289062 96.78125 156.773438 92.191406 160.601562 C 92.386719 153.125 93.546875 145.902344 95.679688 139.011719 C 99.847656 135.46875 104.84375 132.214844 110.515625 129.289062 Z M 110.859375 127.691406 C 105.339844 130.496094 100.464844 133.585938 96.34375 136.902344 C 97.441406 133.722656 98.734375 130.613281 100.238281 127.585938 C 104.03125 124.328125 108.542969 121.34375 113.644531 118.660156 C 112.558594 121.507812 111.613281 124.523438 110.859375 127.691406 Z M 131.859375 119.519531 C 127.542969 120.785156 123.390625 122.21875 119.480469 123.785156 C 116.96875 124.8125 114.5625 125.882812 112.257812 126.996094 C 113.070312 123.785156 114.050781 120.710938 115.207031 117.84375 C 120.863281 114.996094 127.226562 112.523438 134.101562 110.472656 C 133.214844 113.292969 132.449219 116.308594 131.859375 119.519531 Z M 158.261719 105.300781 C 157.796875 108.136719 157.40625 111.105469 157.117188 114.167969 C 148.738281 115.328125 140.675781 116.984375 133.125 119.140625 C 133.757812 115.902344 134.539062 112.886719 135.484375 110.066406 C 142.585938 108.015625 150.230469 106.417969 158.261719 105.300781 Z M 159.707031 98.308594 C 159.238281 100.144531 158.832031 102.074219 158.457031 104.109375 C 150.621094 105.179688 143.054688 106.734375 135.9375 108.753906 C 136.703125 106.613281 137.546875 104.59375 138.496094 102.695312 C 145.128906 100.808594 152.257812 99.332031 159.707031 98.308594 Z M 184.03125 95.457031 C 176.222656 95.472656 168.566406 95.96875 161.242188 96.90625 C 162.398438 92.910156 163.859375 89.546875 165.601562 87.03125 C 171.574219 86.246094 177.742188 85.839844 184.03125 85.808594 Z M 208.023438 96.90625 C 200.683594 95.96875 193.027344 95.472656 185.203125 95.457031 L 185.203125 85.808594 C 191.523438 85.824219 197.691406 86.230469 203.617188 86.984375 C 205.390625 89.515625 206.835938 92.878906 208.023438 96.90625 Z M 210.792969 104.097656 C 210.433594 102.074219 210.027344 100.132812 209.542969 98.292969 C 217.007812 99.316406 224.121094 100.792969 230.753906 102.679688 C 231.703125 104.578125 232.5625 106.613281 233.328125 108.753906 C 226.199219 106.71875 218.644531 105.167969 210.792969 104.097656 Z M 236.125 119.097656 C 228.632812 116.972656 220.585938 115.296875 212.148438 114.136719 C 211.847656 111.078125 211.46875 108.121094 210.988281 105.300781 C 219.035156 106.402344 226.679688 108.015625 233.777344 110.050781 C 234.710938 112.871094 235.496094 115.871094 236.125 119.097656 Z M 256.992188 126.921875 C 251.078125 124.058594 244.503906 121.554688 237.390625 119.472656 C 236.789062 116.261719 236.050781 113.277344 235.148438 110.457031 C 242.039062 112.523438 248.386719 114.980469 254.042969 117.816406 C 255.199219 120.679688 256.179688 123.726562 256.992188 126.921875 Z M 258.390625 127.601562 C 257.621094 124.449219 256.691406 121.464844 255.605469 118.644531 C 260.707031 121.3125 265.203125 124.296875 268.996094 127.554688 C 270.484375 130.539062 271.792969 133.628906 272.875 136.78125 C 268.726562 133.449219 263.851562 130.359375 258.390625 127.601562 Z M 260.871094 150.199219 C 260.871094 149.386719 260.871094 148.554688 260.855469 147.726562 C 260.707031 141.0625 259.96875 134.820312 258.707031 129.0625 C 264.363281 131.972656 269.355469 135.242188 273.507812 138.800781 C 275.675781 145.765625 276.878906 153.046875 277.074219 160.585938 C 272.472656 156.773438 267.023438 153.289062 260.871094 150.199219 Z M 255.035156 189.847656 C 256.238281 185.644531 257.246094 181.4375 258.074219 177.261719 C 264.167969 180.351562 269.445312 183.804688 273.792969 187.574219 C 272.757812 191.539062 271.476562 195.53125 269.972656 199.484375 C 265.730469 195.925781 260.707031 192.714844 255.035156 189.847656 Z M 264.859375 211.183594 C 260.917969 207.878906 256.253906 204.878906 250.988281 202.226562 C 252.371094 198.503906 253.605469 194.765625 254.703125 190.996094 C 260.359375 193.859375 265.339844 197.085938 269.523438 200.644531 C 268.136719 204.1875 266.589844 207.699219 264.859375 211.183594 Z M 274.410156 222.113281 C 272.863281 219.460938 270.832031 216.867188 268.320312 214.332031 C 267.519531 213.535156 266.648438 212.75 265.777344 211.980469 C 267.519531 208.515625 269.070312 205 270.46875 201.472656 C 271.265625 202.195312 272.066406 202.921875 272.800781 203.660156 C 275.554688 206.433594 277.734375 209.265625 279.375 212.191406 C 277.902344 215.539062 276.261719 218.855469 274.410156 222.113281 Z M 213.167969 278.136719 C 213.078125 277.246094 212.839844 276.355469 212.449219 275.480469 C 220.992188 272.179688 228.980469 268.15625 236.335938 263.453125 C 237.269531 265.320312 237.75 267.25 237.796875 269.226562 C 228.558594 273.972656 219.835938 276.839844 213.167969 278.136719 Z M 212.734375 281.648438 C 213.003906 280.910156 213.15625 280.125 213.199219 279.339844 C 219.835938 278.046875 228.515625 275.242188 237.765625 270.550781 C 237.628906 272.332031 237.132812 274.09375 236.292969 275.796875 C 228.183594 278.859375 220.03125 280.773438 212.734375 281.648438 Z M 206.746094 288.34375 C 207.785156 287.695312 208.71875 286.984375 209.53125 286.246094 C 215.605469 286.652344 222.195312 285.914062 228.695312 284.226562 C 226.917969 285.523438 224.902344 286.746094 222.722656 287.84375 C 217.699219 289.066406 213.652344 289.097656 206.746094 288.34375 Z M 170.328125 291.703125 C 174.582031 292.941406 179.488281 293.648438 184.617188 293.648438 C 187.160156 293.648438 189.613281 293.484375 191.945312 293.183594 C 192.726562 293.949219 193.539062 294.582031 194.367188 295.050781 C 191.148438 295.335938 187.898438 295.503906 184.617188 295.503906 C 177.425781 295.503906 170.339844 294.78125 163.4375 293.394531 C 165.84375 293.183594 168.070312 292.625 170.328125 291.703125 Z M 159.765625 286.246094 C 160.578125 286.984375 161.511719 287.695312 162.550781 288.34375 C 155.597656 289.097656 151.550781 289.066406 146.496094 287.828125 C 144.316406 286.730469 142.316406 285.523438 140.539062 284.210938 C 147.054688 285.914062 153.671875 286.652344 159.765625 286.246094 Z M 156.050781 279.339844 C 156.09375 280.109375 156.246094 280.894531 156.515625 281.648438 C 149.222656 280.757812 141.050781 278.859375 132.945312 275.785156 C 132.101562 274.082031 131.605469 272.332031 131.484375 270.550781 C 140.722656 275.226562 149.402344 278.046875 156.050781 279.339844 Z M 132.898438 263.421875 C 140.269531 268.15625 148.257812 272.179688 156.800781 275.46875 C 156.394531 276.339844 156.15625 277.230469 156.066406 278.136719 C 149.402344 276.824219 140.691406 273.960938 131.441406 269.210938 C 131.484375 267.21875 131.996094 265.289062 132.898438 263.421875 Z M 94.175781 223.289062 C 92.445312 226.542969 91.4375 229.890625 91.167969 233.328125 C 89.4375 230.644531 87.8125 227.871094 86.324219 224.917969 C 86.371094 220.996094 87.347656 217.183594 89.167969 213.519531 C 90.65625 216.835938 92.328125 220.09375 94.175781 223.289062 Z M 103.488281 211.964844 C 102.585938 212.75 101.730469 213.535156 100.917969 214.332031 C 98.417969 216.851562 96.386719 219.445312 94.839844 222.097656 C 93.003906 218.839844 91.347656 215.539062 89.890625 212.191406 C 91.996094 208.410156 95.003906 204.820312 98.78125 201.472656 C 100.179688 204.984375 101.742188 208.5 103.488281 211.964844 Z M 118.277344 202.210938 C 112.996094 204.867188 108.332031 207.867188 104.390625 211.167969 C 102.660156 207.699219 101.113281 204.171875 99.726562 200.644531 C 103.863281 197.144531 108.859375 193.921875 114.5625 191.039062 C 115.660156 194.78125 116.894531 198.519531 118.277344 202.210938 Z M 135.035156 183.125 C 135.847656 186.941406 136.765625 190.800781 137.789062 194.671875 C 131.078125 196.617188 124.894531 198.96875 119.328125 201.683594 C 117.960938 197.976562 116.726562 194.25 115.628906 190.511719 C 121.4375 187.679688 127.964844 185.191406 135.035156 183.125 Z M 132.386719 168.863281 C 133.050781 173.144531 133.832031 177.503906 134.765625 181.917969 C 127.707031 183.96875 121.164062 186.441406 115.296875 189.320312 C 114.09375 185.054688 113.070312 180.789062 112.230469 176.550781 C 118.277344 173.597656 125.046875 171.003906 132.386719 168.863281 Z M 130.117188 143.703125 C 130.265625 151.238281 130.972656 159.273438 132.207031 167.640625 C 124.878906 169.769531 118.097656 172.332031 111.988281 175.316406 C 110.453125 167.234375 109.640625 159.273438 109.550781 151.632812 C 115.703125 148.585938 122.609375 145.933594 130.117188 143.703125 Z M 130.523438 129.453125 C 130.175781 133.390625 130.039062 137.535156 130.070312 141.832031 C 122.667969 144.003906 115.78125 146.625 109.566406 149.625 C 109.566406 149.007812 109.566406 148.375 109.582031 147.757812 C 109.730469 140.898438 110.515625 134.472656 111.867188 128.59375 C 117.808594 125.65625 124.429688 123.0625 131.621094 120.890625 C 131.152344 123.621094 130.777344 126.453125 130.523438 129.453125 Z M 156.230469 136.34375 C 147.445312 137.535156 139.066406 139.269531 131.242188 141.484375 C 131.214844 137.398438 131.363281 133.402344 131.695312 129.542969 C 131.964844 126.394531 132.371094 123.378906 132.867188 120.542969 C 140.40625 118.328125 148.515625 116.59375 157 115.402344 C 156.410156 122.15625 156.1875 129.332031 156.230469 136.34375 Z M 184.03125 113.472656 L 184.03125 134.472656 C 174.824219 134.503906 165.828125 135.109375 157.195312 136.222656 C 157.179688 128.746094 157.449219 121.675781 158.035156 115.253906 C 166.398438 114.136719 175.109375 113.519531 184.03125 113.472656 Z M 184.03125 103.539062 L 184.03125 112.296875 C 175.261719 112.328125 166.566406 112.914062 158.15625 114.015625 C 158.472656 110.910156 158.863281 107.925781 159.359375 105.167969 C 167.257812 104.125 175.53125 103.570312 184.03125 103.539062 Z M 184.03125 102.347656 C 175.667969 102.378906 167.484375 102.921875 159.570312 103.945312 C 159.960938 101.910156 160.398438 99.964844 160.878906 98.15625 C 168.324219 97.175781 176.089844 96.664062 184.03125 96.632812 Z M 185.203125 102.347656 L 185.203125 96.632812 C 193.164062 96.664062 200.925781 97.175781 208.371094 98.140625 C 208.867188 99.949219 209.289062 101.894531 209.679688 103.945312 C 201.765625 102.921875 193.570312 102.378906 185.203125 102.347656 Z M 185.203125 112.296875 L 185.203125 103.539062 C 193.71875 103.554688 201.992188 104.109375 209.90625 105.152344 C 210.386719 107.925781 210.777344 110.878906 211.09375 113.984375 C 202.804688 112.902344 194.109375 112.328125 185.203125 112.296875 Z M 212.058594 136.222656 C 203.4375 135.09375 194.425781 134.488281 185.203125 134.472656 L 185.203125 113.472656 C 194.171875 113.503906 202.878906 114.105469 211.214844 115.191406 C 211.816406 121.628906 212.085938 128.730469 212.058594 136.222656 Z M 237.570312 129.542969 C 237.902344 133.402344 238.035156 137.398438 238.007812 141.484375 C 230.199219 139.269531 221.820312 137.535156 213.035156 136.34375 C 213.066406 129.304688 212.855469 122.113281 212.253906 115.328125 C 220.765625 116.503906 228.84375 118.207031 236.351562 120.363281 C 236.878906 123.273438 237.285156 126.332031 237.570312 129.542969 Z M 239.179688 141.832031 C 239.226562 137.535156 239.074219 133.390625 238.742188 129.453125 C 238.472656 126.410156 238.097656 123.515625 237.617188 120.726562 C 244.804688 122.867188 251.425781 125.429688 257.351562 128.367188 C 258.722656 134.324219 259.519531 140.804688 259.683594 147.757812 C 259.699219 148.375 259.683594 149.007812 259.699219 149.625 C 253.484375 146.609375 246.597656 144.003906 239.179688 141.832031 Z M 237.027344 167.746094 C 238.292969 159.320312 239 151.238281 239.148438 143.640625 C 246.609375 145.855469 253.515625 148.527344 259.699219 151.601562 C 259.625 159.289062 258.78125 167.324219 257.246094 175.464844 C 251.15625 172.464844 244.355469 169.886719 237.027344 167.746094 Z M 234.484375 181.933594 C 235.417969 177.546875 236.1875 173.234375 236.847656 169 C 237.734375 169.253906 238.636719 169.496094 239.527344 169.769531 C 245.875 171.773438 251.710938 174.09375 256.992188 176.703125 C 256.164062 180.894531 255.15625 185.117188 253.96875 189.320312 C 248.085938 186.457031 241.558594 183.96875 234.484375 181.933594 Z M 231.476562 194.671875 C 232.5 190.785156 233.417969 186.910156 234.230469 183.082031 C 241.285156 185.117188 247.800781 187.601562 253.636719 190.46875 C 252.539062 194.222656 251.304688 197.976562 249.9375 201.699219 C 244.371094 198.984375 238.171875 196.617188 231.476562 194.671875 Z M 245.933594 211.589844 C 243.558594 216.957031 240.941406 222.144531 238.082031 227.132812 C 233.570312 224.917969 228.542969 223.003906 223.113281 221.417969 C 224.722656 217.0625 226.257812 212.570312 227.6875 207.984375 C 228.949219 203.902344 230.125 199.84375 231.191406 195.835938 C 237.839844 197.75 243.992188 200.085938 249.53125 202.800781 C 248.402344 205.753906 247.226562 208.695312 245.933594 211.589844 Z M 250.085938 234.761719 C 246.957031 232.152344 243.273438 229.769531 239.132812 227.660156 C 241.992188 222.65625 244.625 217.453125 247.015625 212.070312 C 248.296875 209.175781 249.484375 206.265625 250.582031 203.328125 C 255.800781 205.980469 260.421875 208.964844 264.300781 212.253906 C 260.375 219.988281 255.605469 227.539062 250.085938 234.761719 Z M 253.019531 237.429688 C 252.371094 236.78125 251.679688 236.148438 250.972656 235.53125 C 256.496094 228.324219 261.277344 220.785156 265.21875 213.050781 C 266.003906 213.761719 266.769531 214.453125 267.476562 215.175781 C 270.109375 217.816406 272.183594 220.515625 273.71875 223.289062 C 273.3125 223.996094 272.90625 224.707031 272.484375 225.398438 C 268.347656 232.109375 263.535156 238.335938 258.132812 244.035156 C 256.839844 241.757812 255.140625 239.570312 253.019531 237.429688 Z M 233.222656 257.210938 C 232.816406 256.816406 232.378906 256.425781 231.945312 256.050781 C 238.398438 250.304688 244.503906 243.808594 250.027344 236.78125 C 250.101562 236.675781 250.175781 236.554688 250.25 236.464844 C 250.929688 237.054688 251.574219 237.65625 252.175781 238.257812 C 254.328125 240.414062 256.011719 242.644531 257.277344 244.921875 C 251.183594 251.210938 244.308594 256.832031 236.773438 261.746094 C 235.871094 260.195312 234.683594 258.6875 233.222656 257.210938 Z M 210.070312 272.121094 C 209.980469 272.03125 209.90625 271.96875 209.816406 271.894531 C 217.050781 267.929688 224.226562 262.804688 231.054688 256.832031 C 231.523438 257.226562 231.972656 257.632812 232.394531 258.054688 C 233.792969 259.472656 234.921875 260.917969 235.796875 262.394531 C 228.425781 267.113281 220.4375 271.140625 211.890625 274.425781 C 211.410156 273.628906 210.808594 272.859375 210.070312 272.121094 Z M 138.164062 256.804688 C 145.007812 262.789062 152.199219 267.914062 159.433594 271.878906 C 159.34375 271.96875 159.253906 272.03125 159.179688 272.121094 C 158.441406 272.859375 157.839844 273.628906 157.34375 274.425781 C 148.800781 271.140625 140.828125 267.101562 133.457031 262.394531 C 134.597656 260.421875 136.191406 258.550781 138.164062 256.804688 Z M 118.984375 236.449219 C 119.074219 236.554688 119.148438 236.675781 119.238281 236.78125 C 124.746094 243.808594 130.851562 250.304688 137.304688 256.035156 C 136.871094 256.425781 136.433594 256.816406 136.011719 257.210938 C 134.554688 258.671875 133.363281 260.195312 132.460938 261.746094 C 124.941406 256.832031 118.066406 251.195312 111.972656 244.921875 C 113.613281 241.9375 115.988281 239.089844 118.984375 236.449219 Z M 118.277344 235.515625 C 117.570312 236.132812 116.878906 236.78125 116.230469 237.429688 C 114.09375 239.554688 112.410156 241.757812 111.117188 244.003906 C 105.699219 238.320312 100.902344 232.109375 96.78125 225.398438 C 96.34375 224.707031 95.953125 223.996094 95.53125 223.289062 C 97.53125 219.671875 100.40625 216.246094 104.03125 213.050781 C 107.988281 220.769531 112.753906 228.308594 118.277344 235.515625 Z M 122.25 212.070312 C 124.625 217.4375 127.257812 222.640625 130.117188 227.644531 C 125.980469 229.769531 122.292969 232.152344 119.179688 234.746094 C 113.660156 227.539062 108.875 219.988281 104.949219 212.253906 C 108.800781 209.011719 113.417969 206.027344 118.683594 203.371094 C 119.796875 206.296875 120.984375 209.191406 122.25 212.070312 Z M 141.578125 207.984375 C 143.007812 212.570312 144.542969 217.0625 146.136719 221.417969 C 140.707031 222.988281 135.683594 224.917969 131.167969 227.132812 C 128.324219 222.144531 125.691406 216.957031 123.316406 211.589844 C 122.039062 208.710938 120.863281 205.785156 119.75 202.828125 C 125.242188 200.160156 131.394531 197.808594 138.089844 195.878906 C 139.15625 199.875 140.300781 203.929688 141.578125 207.984375 Z M 160.21875 191.25 C 161.40625 200.371094 162.789062 209.265625 164.324219 217.605469 C 158.382812 218.417969 152.710938 219.578125 147.402344 221.058594 C 144.40625 212.976562 141.652344 204.367188 139.308594 195.53125 C 145.820312 193.695312 152.832031 192.261719 160.21875 191.25 Z M 158.683594 178.195312 C 159.089844 182.160156 159.554688 186.140625 160.050781 190.058594 C 152.664062 191.054688 145.59375 192.488281 138.992188 194.34375 C 137.984375 190.527344 137.066406 186.667969 136.238281 182.792969 C 143.21875 180.832031 150.753906 179.265625 158.683594 178.195312 Z M 157.359375 163.632812 C 157.570312 166.390625 157.78125 168.921875 157.992188 171.15625 C 158.15625 173.101562 158.351562 175.058594 158.5625 177.003906 C 150.621094 178.058594 143.039062 179.613281 135.96875 181.585938 C 135.050781 177.230469 134.238281 172.875 133.574219 168.515625 C 140.976562 166.421875 148.964844 164.777344 157.359375 163.632812 Z M 157.285156 162.457031 C 148.890625 163.570312 140.871094 165.199219 133.394531 167.308594 C 132.160156 159.167969 131.410156 151.105469 131.273438 143.355469 C 139.019531 141.125 147.402344 139.359375 156.246094 138.152344 C 156.320312 146.914062 156.773438 155.386719 157.285156 162.457031 Z M 184.03125 160.660156 C 175.183594 160.675781 166.535156 161.25 158.230469 162.320312 C 157.628906 153.984375 157.269531 145.796875 157.207031 138.015625 C 165.769531 136.871094 174.765625 136.285156 184.03125 136.253906 Z M 211.019531 162.367188 C 202.730469 161.28125 194.066406 160.691406 185.203125 160.660156 L 185.203125 136.253906 C 194.425781 136.269531 203.4375 136.871094 212.058594 138.003906 C 211.996094 145.796875 211.636719 154 211.019531 162.367188 Z M 211.980469 162.484375 C 212.492188 155.398438 212.929688 146.925781 213.019531 138.121094 C 221.804688 139.3125 230.183594 141.0625 237.992188 143.308594 C 237.839844 151.089844 237.089844 159.214844 235.855469 167.402344 C 228.394531 165.273438 220.375 163.617188 211.980469 162.484375 Z M 210.703125 177.003906 C 210.898438 175.058594 211.09375 173.101562 211.273438 171.15625 C 211.46875 168.9375 211.679688 166.4375 211.890625 163.691406 C 220.179688 164.824219 228.167969 166.496094 235.675781 168.652344 C 234.996094 172.964844 234.199219 177.277344 233.28125 181.585938 C 226.210938 179.613281 218.628906 178.058594 210.703125 177.003906 Z M 209.199219 190.058594 C 209.695312 186.125 210.160156 182.160156 210.582031 178.164062 C 218.464844 179.234375 226.015625 180.757812 233.042969 182.734375 C 232.199219 186.636719 231.28125 190.511719 230.273438 194.34375 C 223.65625 192.488281 216.601562 191.054688 209.199219 190.058594 Z M 204.925781 217.605469 C 206.460938 209.253906 207.859375 200.359375 209.046875 191.238281 C 216.390625 192.230469 223.414062 193.648438 229.972656 195.488281 C 227.613281 204.335938 224.84375 212.976562 221.863281 221.070312 C 216.554688 219.578125 210.867188 218.417969 204.925781 217.605469 Z M 211.273438 245.632812 C 207.527344 244.589844 203.527344 243.746094 199.34375 243.160156 C 201.242188 235.984375 203.0625 227.707031 204.730469 218.765625 C 210.597656 219.566406 216.207031 220.710938 221.457031 222.171875 C 218.253906 230.765625 214.78125 238.710938 211.273438 245.632812 Z M 222.453125 249.835938 C 219.429688 248.359375 216.101562 247.078125 212.507812 245.992188 C 216.058594 238.996094 219.519531 231.050781 222.707031 222.519531 C 228.078125 224.074219 233.058594 225.972656 237.511719 228.15625 C 233.027344 235.90625 227.972656 243.160156 222.453125 249.835938 Z M 223.519531 250.378906 C 229.027344 243.703125 234.082031 236.433594 238.5625 228.6875 C 242.65625 230.765625 246.28125 233.132812 249.363281 235.695312 C 249.273438 235.816406 249.183594 235.921875 249.09375 236.042969 C 243.585938 243.070312 237.480469 249.550781 231.054688 255.265625 C 228.890625 253.472656 226.363281 251.828125 223.519531 250.378906 Z M 211.964844 247.0625 C 215.472656 248.105469 218.734375 249.324219 221.667969 250.742188 C 216.300781 257.132812 210.476562 262.984375 204.28125 268.15625 C 202.867188 267.476562 201.316406 266.859375 199.660156 266.347656 C 203.675781 261.613281 207.875 254.980469 211.964844 247.0625 Z M 199.042969 244.320312 C 203.136719 244.878906 207.0625 245.691406 210.734375 246.71875 C 206.566406 254.8125 202.355469 261.429688 198.425781 265.984375 C 196.367188 265.410156 194.171875 264.960938 191.882812 264.65625 C 194.246094 260.089844 196.683594 253.050781 199.042969 244.320312 Z M 185.203125 243.355469 C 189.582031 243.371094 193.855469 243.65625 197.960938 244.167969 C 195.570312 252.914062 193.070312 259.953125 190.621094 264.507812 C 188.875 264.3125 187.054688 264.207031 185.203125 264.191406 Z M 178.628906 264.507812 C 176.179688 259.953125 173.679688 252.914062 171.304688 244.167969 C 175.367188 243.640625 179.636719 243.371094 184.03125 243.339844 L 184.03125 264.191406 C 182.195312 264.207031 180.375 264.3125 178.628906 264.507812 Z M 170.839844 265.984375 C 166.910156 261.429688 162.699219 254.8125 158.53125 246.71875 C 162.1875 245.707031 166.097656 244.894531 170.222656 244.320312 C 172.566406 253.0625 175.003906 260.089844 177.382812 264.65625 C 175.082031 264.945312 172.882812 265.394531 170.839844 265.984375 Z M 164.984375 268.15625 C 158.789062 262.984375 152.964844 257.132812 147.582031 250.757812 C 150.53125 249.355469 153.777344 248.117188 157.300781 247.0625 C 161.390625 254.980469 165.585938 261.613281 169.589844 266.332031 C 167.933594 266.859375 166.386719 267.460938 164.984375 268.15625 Z M 145.730469 250.367188 C 142.902344 251.828125 140.359375 253.472656 138.195312 255.25 C 131.769531 249.535156 125.664062 243.070312 120.171875 236.042969 C 120.066406 235.921875 119.976562 235.800781 119.886719 235.679688 C 122.941406 233.148438 126.582031 230.8125 130.703125 228.714844 C 135.183594 236.449219 140.226562 243.703125 145.730469 250.367188 Z M 156.742188 245.992188 C 153.160156 247.0625 149.824219 248.34375 146.8125 249.824219 C 141.292969 243.160156 136.253906 235.921875 131.769531 228.1875 C 136.191406 226.015625 141.171875 224.132812 146.558594 222.566406 C 149.746094 231.066406 153.207031 239.011719 156.742188 245.992188 Z M 169.90625 243.160156 C 165.722656 243.746094 161.738281 244.589844 157.992188 245.632812 C 154.484375 238.710938 151.027344 230.765625 147.820312 222.1875 C 153.042969 220.742188 158.636719 219.59375 164.535156 218.78125 C 166.203125 227.707031 168.023438 235.984375 169.90625 243.160156 Z M 184.03125 217.4375 L 184.03125 242.164062 C 179.546875 242.195312 175.183594 242.496094 170.988281 243.023438 C 169.078125 235.847656 167.226562 227.570312 165.542969 218.644531 C 171.453125 217.875 177.652344 217.46875 184.03125 217.4375 Z M 184.03125 189.625 L 184.03125 216.261719 C 177.609375 216.277344 171.335938 216.699219 165.332031 217.46875 C 163.769531 209.117188 162.367188 200.207031 161.179688 191.117188 C 168.492188 190.167969 176.148438 189.652344 184.03125 189.625 Z M 184.03125 176.460938 L 184.03125 188.449219 C 176.132812 188.460938 168.429688 188.976562 161.03125 189.925781 C 160.519531 186.003906 160.050781 182.039062 159.628906 178.042969 C 167.4375 177.050781 175.605469 176.492188 184.03125 176.460938 Z M 184.03125 175.285156 C 175.621094 175.300781 167.394531 175.84375 159.511719 176.867188 C 159.058594 172.40625 158.652344 167.929688 158.320312 163.511719 C 166.535156 162.441406 175.15625 161.867188 184.03125 161.835938 Z M 185.203125 175.285156 L 185.203125 161.851562 C 193.960938 161.882812 202.59375 162.484375 210.929688 163.570312 C 210.613281 167.972656 210.207031 172.421875 209.738281 176.867188 C 201.855469 175.84375 193.628906 175.300781 185.203125 175.285156 Z M 185.203125 188.449219 L 185.203125 176.460938 C 193.597656 176.492188 201.78125 177.019531 209.632812 178.03125 C 209.214844 182.023438 208.746094 186.003906 208.234375 189.941406 C 200.835938 188.976562 193.117188 188.460938 185.203125 188.449219 Z M 185.203125 216.261719 L 185.203125 189.625 C 193.058594 189.636719 200.730469 190.152344 208.085938 191.101562 C 206.898438 200.207031 205.484375 209.117188 203.933594 217.484375 C 197.914062 216.699219 191.628906 216.277344 185.203125 216.261719 Z M 185.203125 217.4375 C 191.566406 217.46875 197.765625 217.859375 203.722656 218.628906 C 202.039062 227.570312 200.1875 235.847656 198.261719 243.039062 C 194.066406 242.496094 189.6875 242.195312 185.203125 242.164062 Z M 160.351562 271.050781 C 153.132812 267.113281 145.910156 262.019531 139.066406 256.019531 C 141.171875 254.316406 143.667969 252.730469 146.496094 251.300781 C 151.867188 257.691406 157.675781 263.527344 163.84375 268.742188 C 162.550781 269.4375 161.375 270.207031 160.351562 271.050781 Z M 205.40625 268.742188 C 211.589844 263.542969 217.398438 257.691406 222.753906 251.300781 C 225.550781 252.730469 228.03125 254.316406 230.152344 256.0625 C 223.308594 262.035156 216.117188 267.128906 208.898438 271.066406 C 207.875 270.21875 206.714844 269.453125 205.40625 268.742188 Z M 196.878906 294.78125 C 195.691406 294.507812 194.546875 293.890625 193.449219 292.957031 C 195.390625 292.640625 197.222656 292.21875 198.953125 291.71875 C 201.210938 292.625 203.421875 293.183594 205.796875 293.394531 C 202.867188 293.980469 199.871094 294.433594 196.878906 294.78125 Z M 208.808594 284.453125 C 204.324219 288.960938 194.816406 291.871094 184.617188 291.871094 C 174.417969 291.871094 164.925781 288.960938 160.429688 284.453125 C 158.683594 282.703125 157.796875 280.835938 157.796875 278.917969 C 157.796875 271.757812 169.832031 265.9375 184.617188 265.9375 C 194.816406 265.9375 204.324219 268.863281 208.808594 273.371094 C 210.566406 275.121094 211.453125 276.988281 211.453125 278.917969 C 211.453125 280.835938 210.566406 282.703125 208.808594 284.453125 Z M 92.25 235.03125 C 92.3125 231.414062 93.230469 227.902344 94.898438 224.507812 C 95.183594 225.023438 95.472656 225.519531 95.785156 226.03125 C 100.015625 232.90625 104.964844 239.285156 110.53125 245.117188 C 109.191406 247.773438 108.421875 250.5 108.226562 253.289062 C 102.464844 248.117188 97.003906 242.074219 92.25 235.03125 Z M 109.339844 254.285156 C 109.417969 251.4375 110.125 248.675781 111.402344 246.023438 C 117.523438 252.265625 124.382812 257.886719 131.90625 262.789062 C 130.957031 264.6875 130.429688 266.632812 130.296875 268.621094 C 123.347656 264.945312 116.15625 260.226562 109.339844 254.285156 Z M 136.855469 281.074219 C 135.652344 279.882812 134.675781 278.648438 133.875 277.398438 C 141.894531 280.304688 149.929688 282.101562 157.089844 282.914062 C 157.496094 283.683594 158.007812 284.40625 158.636719 285.132812 C 152.140625 285.417969 145.070312 284.40625 138.222656 282.355469 C 137.757812 281.933594 137.277344 281.511719 136.855469 281.074219 Z M 154.15625 291.070312 C 153.011719 290.679688 151.882812 290.257812 150.800781 289.820312 C 154.578125 290.242188 158.472656 290 164.308594 289.320312 C 165.601562 290 167.003906 290.605469 168.519531 291.117188 C 165.316406 292.203125 162.113281 292.535156 158.203125 292.171875 C 158.1875 292.171875 158.15625 292.171875 158.15625 292.171875 C 156.816406 291.839844 155.480469 291.464844 154.15625 291.070312 Z M 215.082031 291.070312 C 213.757812 291.464844 212.433594 291.824219 211.09375 292.171875 C 211.078125 292.171875 211.078125 292.171875 211.0625 292.171875 C 207.152344 292.535156 203.976562 292.203125 200.789062 291.132812 C 202.308594 290.605469 203.722656 290 205 289.335938 C 210.792969 290 214.675781 290.242188 218.433594 289.820312 C 217.351562 290.257812 216.222656 290.679688 215.082031 291.070312 Z M 231.011719 282.355469 C 224.167969 284.40625 217.109375 285.417969 210.644531 285.132812 C 211.257812 284.40625 211.769531 283.683594 212.191406 282.914062 C 219.324219 282.101562 227.355469 280.320312 235.375 277.410156 C 234.5625 278.648438 233.582031 279.882812 232.394531 281.074219 C 231.960938 281.511719 231.476562 281.933594 231.011719 282.355469 Z M 238.9375 268.636719 C 238.820312 266.632812 238.277344 264.703125 237.328125 262.789062 C 244.867188 257.886719 251.726562 252.28125 257.847656 246.023438 C 259.15625 248.707031 259.835938 251.480469 259.894531 254.300781 C 253.078125 260.226562 245.890625 264.960938 238.9375 268.636719 Z M 261.023438 253.304688 C 260.828125 250.515625 260.058594 247.789062 258.707031 245.132812 C 264.300781 239.285156 269.25 232.90625 273.480469 226.03125 C 273.78125 225.519531 274.066406 225.023438 274.367188 224.507812 C 276.050781 227.933594 276.9375 231.460938 276.984375 235.0625 C 272.230469 242.089844 266.785156 248.132812 261.023438 253.304688 Z M 278.082031 233.359375 C 277.796875 229.921875 276.789062 226.574219 275.089844 223.304688 C 276.921875 220.09375 278.609375 216.835938 280.082031 213.519531 C 281.933594 217.242188 282.878906 221.042969 282.925781 224.945312 C 281.421875 227.886719 279.796875 230.691406 278.082031 233.359375 Z M 274.125 186.277344 C 269.671875 182.492188 264.347656 179.054688 258.34375 176.007812 C 259.894531 167.898438 260.753906 159.878906 260.855469 152.175781 C 267.101562 155.355469 272.5625 158.972656 277.105469 162.9375 C 277.105469 170.101562 276.230469 177.472656 274.441406 185.011719 C 274.351562 185.433594 274.230469 185.855469 274.125 186.277344 Z M 221.804688 90.664062 C 225.007812 93.542969 227.730469 97.085938 230.003906 101.261719 C 223.472656 99.453125 216.496094 98.050781 209.214844 97.070312 C 208.144531 93.226562 206.804688 89.863281 205.152344 87.195312 C 210.972656 88.007812 216.554688 89.171875 221.804688 90.664062 Z M 147.402344 90.707031 C 152.652344 89.214844 158.261719 88.039062 164.097656 87.210938 C 162.445312 89.878906 161.121094 93.242188 160.050781 97.070312 C 152.769531 98.066406 145.789062 99.46875 139.261719 101.261719 C 141.503906 97.128906 144.210938 93.589844 147.402344 90.707031 Z M 94.808594 185.011719 C 93.035156 177.472656 92.160156 170.085938 92.144531 162.921875 C 96.644531 159.019531 102.105469 155.414062 108.394531 152.21875 C 108.511719 159.863281 109.355469 167.792969 110.890625 175.84375 C 104.871094 178.875 99.546875 182.28125 95.078125 186.050781 C 94.988281 185.703125 94.898438 185.355469 94.808594 185.011719 Z M 81.539062 212.855469 C 81.539062 208.710938 82.546875 204.667969 84.460938 200.808594 C 85.585938 204.609375 86.972656 208.378906 88.566406 212.085938 C 86.699219 215.539062 85.601562 219.097656 85.257812 222.714844 C 83.902344 219.882812 82.667969 216.925781 81.570312 213.835938 C 81.554688 213.519531 81.539062 213.1875 81.539062 212.855469 Z M 87.105469 231.324219 C 86.789062 230.117188 86.582031 228.910156 86.460938 227.691406 C 87.902344 230.359375 89.4375 232.921875 91.0625 235.347656 C 91.0625 235.363281 91.0625 235.378906 91.0625 235.394531 C 91.0625 237.128906 91.257812 238.847656 91.636719 240.550781 C 89.964844 237.550781 88.460938 234.476562 87.105469 231.324219 Z M 99.230469 252.234375 C 99.15625 252.160156 99.082031 252.097656 98.992188 252.070312 C 97.398438 249.898438 95.90625 247.667969 94.492188 245.390625 C 93.257812 242.691406 92.523438 239.933594 92.3125 237.144531 C 97.066406 243.929688 102.464844 249.777344 108.152344 254.78125 C 108.167969 257.542969 108.769531 260.269531 109.925781 262.921875 C 105.984375 259.789062 102.347656 256.246094 99.230469 252.234375 Z M 117.765625 271.773438 C 116.214844 270.296875 114.863281 268.773438 113.734375 267.207031 C 119.523438 271.140625 125.785156 274.292969 132.117188 276.734375 C 132.988281 278.375 134.164062 279.960938 135.652344 281.511719 C 130.808594 279.839844 126.160156 277.652344 121.960938 275.03125 C 120.546875 273.972656 119.148438 272.902344 117.765625 271.773438 Z M 251.484375 271.773438 C 250.070312 272.917969 248.628906 274.035156 247.167969 275.105469 C 242.984375 277.730469 238.335938 279.882812 233.523438 281.542969 C 234.996094 280.019531 236.1875 278.40625 237.089844 276.75 C 243.421875 274.320312 249.679688 271.171875 255.472656 267.234375 C 254.359375 268.789062 253.019531 270.3125 251.484375 271.773438 Z M 270.246094 252.070312 C 270.167969 252.097656 270.09375 252.160156 270.035156 252.234375 C 266.90625 256.261719 263.25 259.804688 259.308594 262.953125 C 260.464844 260.285156 261.066406 257.554688 261.082031 254.796875 C 266.769531 249.792969 272.167969 243.941406 276.921875 237.1875 C 276.714844 239.976562 275.960938 242.722656 274.742188 245.421875 C 273.328125 247.683594 271.839844 249.898438 270.246094 252.070312 Z M 277.601562 240.550781 C 277.976562 238.863281 278.171875 237.128906 278.171875 235.394531 C 279.796875 232.953125 281.332031 230.417969 282.773438 227.734375 C 282.65625 228.941406 282.445312 230.132812 282.144531 231.339844 C 280.773438 234.476562 279.269531 237.566406 277.601562 240.550781 Z M 281.601562 145.539062 C 279.632812 142.976562 277.253906 140.519531 274.5625 138.167969 C 273.628906 135.257812 272.53125 132.394531 271.265625 129.605469 C 273.207031 131.472656 274.9375 133.402344 276.410156 135.425781 C 278.335938 138.695312 280.050781 142.089844 281.601562 145.539062 Z M 249.046875 108.210938 C 243.722656 105.695312 237.855469 103.507812 231.566406 101.699219 C 229.523438 97.71875 227.085938 94.28125 224.242188 91.355469 C 228.425781 92.652344 232.378906 94.175781 236.050781 95.878906 C 237.480469 96.679688 238.894531 97.492188 240.292969 98.367188 C 243.601562 101.082031 246.535156 104.382812 249.046875 108.210938 Z M 200.699219 83.804688 C 201.375 84.347656 202.007812 84.964844 202.625 85.6875 C 196.984375 85.007812 191.160156 84.648438 185.203125 84.617188 L 185.203125 82.613281 C 190.441406 82.628906 195.613281 83.035156 200.699219 83.804688 Z M 184.03125 82.597656 L 184.03125 84.617188 C 178.105469 84.648438 172.265625 85.023438 166.625 85.703125 C 167.226562 84.980469 167.875 84.347656 168.550781 83.804688 C 173.605469 83.035156 178.78125 82.628906 184.03125 82.597656 Z M 92.914062 135.363281 C 94.371094 133.390625 96.058594 131.472656 97.96875 129.648438 C 96.691406 132.46875 95.589844 135.363281 94.660156 138.320312 C 91.921875 140.6875 89.558594 143.1875 87.589844 145.75 C 89.183594 142.179688 90.957031 138.710938 92.914062 135.363281 Z M 78.425781 187.03125 C 78.621094 184.058594 79.3125 181.152344 80.488281 178.316406 C 80.878906 185.296875 82.066406 192.261719 83.976562 199.121094 C 82.023438 202.722656 80.863281 206.433594 80.503906 210.246094 C 79.117188 203.34375 78.398438 196.242188 78.398438 189.050781 C 78.398438 188.371094 78.410156 187.695312 78.425781 187.03125 Z M 76.589844 188.792969 C 76.589844 188.871094 76.605469 188.929688 76.636719 189.003906 C 76.636719 189.019531 76.621094 189.035156 76.621094 189.050781 C 76.621094 217.953125 87.859375 245.132812 108.257812 265.578125 C 128.65625 286.019531 155.765625 297.265625 184.617188 297.265625 C 244.128906 297.265625 292.554688 248.765625 292.613281 189.140625 C 292.660156 189.035156 292.6875 188.914062 292.6875 188.792969 C 292.6875 187.84375 292.628906 186.910156 292.539062 185.976562 C 291.769531 158.21875 280.652344 132.226562 260.976562 112.523438 C 240.578125 92.082031 213.472656 80.820312 184.617188 80.820312 C 155.78125 80.820312 128.65625 92.082031 108.257812 112.523438 C 88.460938 132.363281 77.328125 158.535156 76.695312 186.503906 C 76.621094 187.269531 76.589844 188.023438 76.589844 188.792969 " fill-opacity="1" fill-rule="nonzero"/></g><g clip-path="url(#5d3e7e4361)"><path fill="#ffffff" d="M 298.945312 210.125 C 297.308594 210.261719 296.253906 211.363281 296.585938 212.570312 C 296.917969 213.789062 298.511719 214.664062 300.152344 214.527344 C 311.613281 213.5625 320.820312 211.832031 327.152344 209.359375 C 333.878906 206.734375 337.5625 203.238281 337.5625 198.878906 C 337.5625 189.835938 320.355469 179.339844 292.554688 169.707031 C 265.714844 160.40625 228.695312 151.601562 187.851562 145.527344 C 167.210938 142.464844 147.597656 140.382812 129.769531 139.238281 C 103.957031 137.582031 81.839844 137.910156 65.878906 140.082031 C 48.941406 142.390625 38.605469 146.925781 37.539062 153.589844 C 37.480469 153.984375 37.449219 154.375 37.449219 154.753906 C 37.449219 158.507812 40.246094 162.425781 45.421875 166.390625 C 50.402344 170.175781 57.652344 174.078125 66.769531 177.9375 C 68.273438 178.574219 70.09375 178.253906 70.828125 177.199219 C 71.566406 176.160156 70.949219 174.804688 69.445312 174.15625 C 60.886719 170.535156 54.132812 166.917969 49.632812 163.480469 C 45.664062 160.449219 43.511719 157.632812 43.511719 155.144531 C 43.511719 154.902344 43.542969 154.675781 43.570312 154.480469 C 44.324219 149.792969 53.035156 146.398438 67.460938 144.441406 C 82.863281 142.328125 104.4375 142.042969 129.769531 143.65625 C 147.402344 144.785156 166.804688 146.851562 187.160156 149.882812 C 227.507812 155.867188 264 164.535156 290.371094 173.671875 C 315.765625 182.476562 331.484375 191.449219 331.484375 198.488281 C 331.484375 201.1875 328.824219 203.507812 323.949219 205.40625 C 318.21875 207.640625 309.6875 209.222656 298.945312 210.125 " fill-opacity="1" fill-rule="nonzero"/></g><path fill="#ffffff" d="M 296.132812 78.347656 L 296.285156 78.347656 C 297.308594 91.839844 308.046875 102.617188 321.511719 103.628906 L 321.511719 103.792969 C 308.046875 104.804688 297.308594 115.585938 296.285156 129.078125 L 296.132812 129.078125 C 295.109375 115.585938 284.371094 104.804688 270.90625 103.792969 L 270.90625 103.628906 C 284.371094 102.617188 295.109375 91.839844 296.132812 78.347656 " fill-opacity="1" fill-rule="evenodd"/><path fill="#ffffff" d="M 321.917969 124.902344 L 321.992188 124.902344 C 322.414062 130.644531 326.988281 135.226562 332.703125 135.652344 L 332.703125 135.726562 C 326.988281 136.148438 322.414062 140.730469 321.992188 146.460938 L 321.917969 146.460938 C 321.496094 140.730469 316.921875 136.148438 311.191406 135.726562 L 311.191406 135.652344 C 316.921875 135.226562 321.496094 130.644531 321.917969 124.902344 " fill-opacity="1" fill-rule="evenodd"/><path stroke-linecap="butt" transform="matrix(0.633033, -0.0618773, 0.0618773, 0.633033, 54.047103, 146.994)" fill="none" stroke-linejoin="miter" d="M 24.34966 3.025173 L 24.349332 67.79884 L 52.22201 67.802046 L 52.218424 83.999748 L 5.894953 84.001037 L 5.893352 3.022959 Z M 24.34966 3.025173 " stroke="#000000" stroke-width="7.362615" stroke-opacity="1" stroke-miterlimit="4"/><path stroke-linecap="butt" transform="matrix(0.634967, -0.0371021, 0.0371021, 0.634967, 90.604158, 143.258223)" fill="none" stroke-linejoin="miter" d="M 2.255379 43.452763 C 2.250803 31.739293 6.244225 21.828165 14.236003 13.713247 C 22.221651 5.597971 31.840403 1.539938 43.086129 1.53879 C 54.418046 1.536526 64.030948 5.580193 71.943585 13.664734 C 79.868484 21.749992 83.828544 31.676766 83.829538 43.451545 C 83.832006 55.306385 79.933455 65.278424 72.134244 73.361531 C 64.3545 81.427319 54.669382 85.463019 43.09151 85.463214 C 31.24929 85.460268 21.480249 81.456693 13.777896 73.458261 C 6.09537 65.436381 2.250324 55.436353 2.255379 43.452763 Z M 22.193884 43.448939 C 22.190503 47.718155 22.84333 51.601233 24.158495 55.098532 C 25.467529 58.595473 27.748991 61.558652 31.009012 63.988429 C 34.2885 66.400887 38.308986 67.607809 43.088862 67.610269 C 49.960788 67.605781 55.142935 65.250964 58.641792 60.540046 C 62.141008 55.822997 63.888591 50.130029 63.891391 43.449237 C 63.889175 36.85428 62.110464 31.182885 58.549127 26.434694 C 54.981301 21.692277 49.829403 19.318056 43.086944 19.317805 C 36.411926 19.321495 31.259717 21.690365 27.629602 26.436677 C 24.005618 31.183347 22.191668 36.853982 22.193884 43.448939 Z M 22.193884 43.448939 " stroke="#000000" stroke-width="7.362615" stroke-opacity="1" stroke-miterlimit="4"/><path stroke-linecap="butt" transform="matrix(0.635982, -0.00932354, 0.00932354, 0.635982, 146.911665, 140.100255)" fill="none" stroke-linejoin="miter" d="M -2.945762 3.023767 L 19.245565 3.023564 L 36.11278 28.926293 L 53.008598 3.021024 L 75.199924 3.020821 L 45.339759 47.672054 L 45.341513 84.002463 L 26.890718 84.002225 L 26.888964 47.671815 Z M -2.945762 3.023767 " stroke="#000000" stroke-width="7.362615" stroke-opacity="1" stroke-miterlimit="4"/><path stroke-linecap="butt" transform="matrix(0.635915, 0.0131318, -0.0131318, 0.635915, 194.18343, 139.523751)" fill="none" stroke-linejoin="miter" d="M 52.724216 3.020225 L 52.720994 19.224803 L 24.347664 19.221016 L 24.348046 35.302665 L 50.540623 35.302343 L 50.543414 51.500654 L 24.350837 51.500976 L 24.346295 84.002234 L 5.89355 84.002437 L 5.898268 3.022783 Z M 52.724216 3.020225 " stroke="#000000" stroke-width="7.362615" stroke-opacity="1" stroke-miterlimit="4"/><path stroke-linecap="butt" transform="matrix(0.635047, 0.0357084, -0.0357084, 0.635047, 230.912788, 140.207744)" fill="none" stroke-linejoin="miter" d="M 68.129394 3.020344 L 68.131775 55.243204 C 68.130613 65.177325 65.447485 72.703387 60.082045 77.815257 C 54.709784 82.915209 46.85645 85.46048 36.522731 85.463334 C 26.182537 85.460402 18.331913 82.912395 12.964727 77.819658 C 7.596162 72.702395 4.915527 65.17653 4.910556 55.242753 L 4.914652 3.02568 L 23.367769 3.021459 L 23.368229 49.849896 C 23.366486 56.382482 24.397327 60.931706 26.460064 63.485305 C 28.517013 66.04538 31.873416 67.320617 36.523486 67.317493 C 41.1739 67.320501 44.528248 66.04314 46.586528 63.48541 C 48.650941 60.927335 49.681125 56.385243 49.676736 49.853002 L 49.676277 3.024565 Z M 68.129394 3.020344 " stroke="#000000" stroke-width="7.362615" stroke-opacity="1" stroke-miterlimit="4"/><path stroke-linecap="butt" transform="matrix(0.63321, 0.0600417, -0.0600417, 0.63321, 278.724536, 142.966894)" fill="none" stroke-linejoin="miter" d="M 35.731588 1.537655 C 40.111366 1.53568 44.391892 2.178519 48.578122 3.453365 C 52.777159 4.733166 55.894653 5.992141 57.925649 7.243097 L 60.869048 9.203334 L 53.393706 23.921873 C 52.801706 23.533841 51.976848 23.032173 50.924666 22.410173 C 49.884712 21.787014 47.930402 20.954445 45.056201 19.919159 C 42.180261 18.865532 39.495959 18.336602 37.003876 18.338483 C 33.93128 18.33372 31.562949 18.990116 29.886073 20.302715 C 28.221426 21.614155 27.389227 23.377193 27.390056 25.597941 C 27.39105 26.714429 27.784816 27.744323 28.56524 28.688201 C 29.351778 29.6315 30.687941 30.646062 32.592073 31.730147 C 34.495045 32.802005 36.162578 33.667936 37.600204 34.321246 C 39.037831 34.974556 41.259627 35.960662 44.264434 37.267335 C 49.504161 39.503349 53.968566 42.540818 57.657069 46.373628 C 61.368869 50.191891 63.217216 54.526141 63.219294 59.362412 C 63.222321 64.013524 62.379566 68.072417 60.703257 71.537931 C 59.039755 75.0084 56.749469 77.723998 53.826284 79.685305 C 50.915907 81.651566 47.697726 83.104145 44.166206 84.049736 C 40.634106 84.989212 36.811068 85.462758 32.689818 85.458726 C 29.155194 85.460759 25.691463 85.104439 22.285818 84.384811 C 18.886286 83.664604 16.031533 82.769361 13.733787 81.697922 C 11.447109 80.613096 9.384593 79.550197 7.546239 78.509226 C 5.725648 77.460402 4.382737 76.569859 3.52478 75.849246 L 2.250652 74.773282 L 11.477183 59.265628 C 12.261508 59.925364 13.340095 60.760774 14.714102 61.784086 C 16.08637 62.789055 18.522575 64.149644 22.022138 65.859738 C 25.538304 67.549752 28.635297 68.39735 31.325347 68.401373 C 39.104081 68.397891 42.992068 65.746711 42.994843 60.441138 C 42.993848 59.32465 42.711294 58.296549 42.152713 57.350143 C 41.594712 56.40985 40.610787 55.46676 39.207053 54.520295 C 37.802159 53.561602 36.552064 52.804145 35.468996 52.246764 C 34.398155 51.688223 32.633379 50.837682 30.169712 49.707948 C 27.728762 48.557554 25.912754 47.687195 24.733918 47.095712 C 19.827615 44.667689 16.030478 41.640976 13.348041 38.008881 C 10.666184 34.382899 9.321026 30.475946 9.325374 26.292976 C 9.321099 19.026342 12.008077 13.077605 17.37524 8.460154 C 22.742403 3.842704 28.859148 1.535397 35.731588 1.537655 Z M 35.731588 1.537655 " stroke="#000000" stroke-width="7.362615" stroke-opacity="1" stroke-miterlimit="4"/><g fill="#ffffff" fill-opacity="1"><g transform="translate(59.244797, 200.168795)"><g><path d="M 10.390625 -52.765625 L 14.40625 -11.75 L 32.0625 -13.484375 L 33.0625 -3.234375 L 3.734375 -0.359375 L -1.28125 -51.625 Z M 10.390625 -52.765625 "/></g></g></g><g fill="#ffffff" fill-opacity="1"><g transform="translate(93.720732, 196.595473)"><g><path d="M -0.0625 -25.8125 C -0.5 -33.257812 1.660156 -39.707031 6.421875 -45.15625 C 11.191406 -50.601562 17.148438 -53.535156 24.296875 -53.953125 C 31.492188 -54.378906 37.753906 -52.171875 43.078125 -47.328125 C 48.410156 -42.492188 51.296875 -36.332031 51.734375 -28.84375 C 52.171875 -21.320312 50.066406 -14.851562 45.421875 -9.4375 C 40.773438 -4.019531 34.769531 -1.09375 27.40625 -0.65625 C 19.882812 -0.21875 13.535156 -2.398438 8.359375 -7.203125 C 3.179688 -12.003906 0.375 -18.207031 -0.0625 -25.8125 Z M 12.578125 -26.5625 C 12.734375 -23.875 13.289062 -21.4375 14.25 -19.25 C 15.21875 -17.070312 16.785156 -15.273438 18.953125 -13.859375 C 21.117188 -12.441406 23.71875 -11.820312 26.75 -12 C 31.113281 -12.257812 34.320312 -13.953125 36.375 -17.078125 C 38.425781 -20.203125 39.328125 -23.878906 39.078125 -28.109375 C 38.828125 -32.304688 37.476562 -35.84375 35.03125 -38.71875 C 32.59375 -41.601562 29.234375 -42.921875 24.953125 -42.671875 C 20.722656 -42.429688 17.539062 -40.734375 15.40625 -37.578125 C 13.269531 -34.429688 12.328125 -30.757812 12.578125 -26.5625 Z M 12.578125 -26.5625 "/></g></g></g><g fill="#ffffff" fill-opacity="1"><g transform="translate(147.694843, 193.522739)"><g><path d="M -2.625 -51.484375 L 11.484375 -51.6875 L 22.46875 -35.375 L 32.96875 -52.015625 L 47.078125 -52.21875 L 28.5 -23.53125 L 28.84375 -0.421875 L 17.109375 -0.25 L 16.765625 -23.359375 Z M -2.625 -51.484375 "/></g></g></g><g fill="#ffffff" fill-opacity="1"><g transform="translate(193.080362, 192.940589)"><g><path d="M 34.59375 -50.8125 L 34.375 -40.5 L 16.328125 -40.875 L 16.125 -30.65625 L 32.796875 -30.3125 L 32.578125 -20.015625 L 15.90625 -20.359375 L 15.484375 0.3125 L 3.75 0.078125 L 4.8125 -51.421875 Z M 34.59375 -50.8125 "/></g></g></g><g fill="#ffffff" fill-opacity="1"><g transform="translate(227.913285, 193.551703)"><g><path d="M 46.15625 -49 L 44.296875 -15.828125 C 43.941406 -9.503906 41.96875 -4.816406 38.375 -1.765625 C 34.789062 1.273438 29.710938 2.609375 23.140625 2.234375 C 16.578125 1.867188 11.679688 -0.0234375 8.453125 -3.453125 C 5.234375 -6.890625 3.800781 -11.769531 4.15625 -18.09375 L 6.015625 -51.265625 L 17.71875 -50.609375 L 16.046875 -20.875 C 15.816406 -16.707031 16.3125 -13.773438 17.53125 -12.078125 C 18.75 -10.378906 20.832031 -9.445312 23.78125 -9.28125 C 26.726562 -9.125 28.90625 -9.816406 30.3125 -11.359375 C 31.71875 -12.898438 32.535156 -15.753906 32.765625 -19.921875 L 34.4375 -49.65625 Z M 46.15625 -49 "/></g></g></g><g fill="#ffffff" fill-opacity="1"><g transform="translate(273.681033, 196.156536)"><g><path d="M 27.578125 -50.078125 C 30.347656 -49.804688 33.019531 -49.140625 35.59375 -48.078125 C 38.175781 -47.023438 40.070312 -46.039062 41.28125 -45.125 L 43.03125 -43.703125 L 37.421875 -34.84375 C 37.066406 -35.125 36.578125 -35.488281 35.953125 -35.9375 C 35.328125 -36.394531 34.132812 -37.039062 32.375 -37.875 C 30.613281 -38.707031 28.941406 -39.203125 27.359375 -39.359375 C 25.421875 -39.535156 23.882812 -39.257812 22.75 -38.53125 C 21.613281 -37.8125 20.976562 -36.75 20.84375 -35.34375 C 20.78125 -34.644531 20.96875 -33.96875 21.40625 -33.3125 C 21.851562 -32.664062 22.644531 -31.941406 23.78125 -31.140625 C 24.925781 -30.347656 25.929688 -29.695312 26.796875 -29.1875 C 27.660156 -28.6875 29.007812 -27.929688 30.84375 -26.921875 C 34.03125 -25.203125 36.675781 -23.019531 38.78125 -20.375 C 40.882812 -17.726562 41.789062 -14.875 41.5 -11.8125 C 41.21875 -8.863281 40.445312 -6.34375 39.1875 -4.25 C 37.925781 -2.15625 36.3125 -0.578125 34.34375 0.484375 C 32.382812 1.554688 30.253906 2.285156 27.953125 2.671875 C 25.660156 3.066406 23.210938 3.144531 20.609375 2.90625 C 18.367188 2.6875 16.191406 2.242188 14.078125 1.578125 C 11.972656 0.921875 10.226562 0.1875 8.84375 -0.625 C 7.457031 -1.445312 6.210938 -2.242188 5.109375 -3.015625 C 4.015625 -3.796875 3.21875 -4.441406 2.71875 -4.953125 L 1.984375 -5.703125 L 8.765625 -14.96875 C 9.210938 -14.507812 9.84375 -13.914062 10.65625 -13.1875 C 11.46875 -12.46875 12.929688 -11.460938 15.046875 -10.171875 C 17.160156 -8.878906 19.066406 -8.15625 20.765625 -8 C 25.691406 -7.53125 28.316406 -8.976562 28.640625 -12.34375 C 28.703125 -13.039062 28.582031 -13.707031 28.28125 -14.34375 C 27.988281 -14.976562 27.425781 -15.632812 26.59375 -16.3125 C 25.757812 -17 25.019531 -17.550781 24.375 -17.96875 C 23.726562 -18.394531 22.660156 -19.039062 21.171875 -19.90625 C 19.679688 -20.78125 18.582031 -21.4375 17.875 -21.875 C 14.914062 -23.707031 12.695312 -25.851562 11.21875 -28.3125 C 9.738281 -30.78125 9.125 -33.335938 9.375 -35.984375 C 9.8125 -40.585938 11.863281 -44.1875 15.53125 -46.78125 C 19.207031 -49.382812 23.222656 -50.484375 27.578125 -50.078125 Z M 27.578125 -50.078125 "/></g></g></g></svg>